<?xml version="1.0" encoding="utf-8"?><svg width="164" height="98" viewBox="0 0 164 98" xmlns="http://www.w3.org/2000/svg" xmlns:xlink="http://www.w3.org/1999/xlink"><svg viewBox="0 0 50 50" width="50" height="50" id="codepen" y="48"><path d="M25 4L4 17.345v15.309L25 46l21-13.345v-15.31L25 4zm0 25.182l-5.932-4.113L25 21.025l5.932 4.044L25 29.182zm2-11.576V9.95l13.43 8.534-6.019 4.173L27 17.606zm-4 0l-7.411 5.052-6.019-4.173L23 9.95v7.656zm-10.908 7.436L8 27.831v-5.627l4.092 2.838zm3.478 2.411L23 32.604v7.446L9.591 31.529l5.979-4.076zM27 32.604l7.43-5.151 5.979 4.076L27 40.05v-7.446zm10.908-7.562L42 22.205v5.627l-4.092-2.79z" stroke="#000" stroke-width="2" stroke-miterlimit="10" fill="none"/></svg><svg id="email" data-name="Layer 1" width="64" height="48" viewBox="0 0 64 48"><defs><style>.bcls-1{fill:#2f5572}</style></defs><title>mail</title><path class="bcls-1" d="M0 0v8l32 16L64 8V0H0zm0 16v32h64V16L32 32z"/></svg><svg width="50" height="50" viewBox="0 0 50 50" id="facebook" x="64"><path stroke="#000" stroke-width="2" stroke-linecap="round" stroke-miterlimit="10" d="M40 1H10c-4.972 0-9 4.028-9 9v30c0 4.972 4.028 9 9 9h30c4.972 0 9-4.028 9-9V10c0-4.972-4.028-9-9-9zM26 48V28h-3v-6h3v-3c0-4.677 1.581-8 7-8 2.903 0 6 1 6 1v5h-3c-2.145 0-3 .504-3 2v3h6l-1 6h-5v20" fill="none"/></svg><svg viewBox="0 0 32 32" width="32" height="32" id="github" x="114" y="50"><path d="M15.999 4C9.373 4 4 9.373 4 16.001c0 5.301 3.438 9.799 8.207 11.386.6.11.819-.26.819-.578l-.016-2.041c-3.338.725-4.042-1.609-4.042-1.609-.546-1.386-1.332-1.755-1.332-1.755-1.09-.745.082-.729.082-.729 1.204.085 1.838 1.237 1.838 1.237 1.07 1.834 2.809 1.304 3.492.997.109-.775.419-1.304.762-1.604-2.665-.303-5.466-1.332-5.466-5.931 0-1.31.468-2.381 1.235-3.22-.123-.304-.535-1.524.118-3.176 0 0 1.008-.323 3.3 1.23a11.516 11.516 0 0 1 3.004-.404c1.019.005 2.046.138 3.004.404 2.291-1.553 3.297-1.23 3.297-1.23.655 1.652.243 2.872.119 3.176.769.839 1.233 1.91 1.233 3.22 0 4.61-2.806 5.624-5.479 5.921.431.37.815 1.103.815 2.222 0 1.604-.015 2.898-.015 3.292 0 .321.216.694.825.577 4.765-1.591 8.2-6.085 8.2-11.385C28 9.373 22.627 4 15.999 4z" fill-rule="evenodd" clip-rule="evenodd"/></svg><svg width="50" height="50" viewBox="0 0 50 50" id="linkedIn" x="114"><path stroke="#000" stroke-width="2" stroke-linecap="round" stroke-linejoin="round" stroke-miterlimit="10" d="M40 1H10c-5 0-9 4-9 9v30c0 5 4 9 9 9h30c5 0 9-4 9-9V10c0-5-4-9-9-9zM8 19h8v23H8z" fill="none"/><path stroke="#000" stroke-width="1.976" stroke-linecap="round" stroke-linejoin="round" stroke-miterlimit="10" d="M12 16.5c-2.4 0-4-1.7-4-3.8C8 10.6 9.6 9 12 9s3.9 1.6 4 3.7c0 2.1-1.5 3.8-4 3.8z" fill="none"/><path stroke="#000" stroke-width="2" stroke-linecap="round" stroke-linejoin="round" stroke-miterlimit="10" d="M42 42h-8V29s-.1-4-3.5-4c-3 0-3.5 2.9-3.5 4v13h-8V19h8v3.1s1.6-3.1 6.3-3.1c4.8 0 8.7 3.3 8.7 10v13z" fill="none"/></svg><svg viewBox="0 0 32 32" width="32" height="32" id="speechbubble" x="64" y="50"><path stroke="#000" stroke-width="2" stroke-miterlimit="10" fill="none" d="M28 22H14l-5 4v-4H4V6h24z"/></svg></svg>