<?xml version="1.0" encoding="utf-8"?><svg width="210" height="164" viewBox="0 0 210 164" xmlns="http://www.w3.org/2000/svg" xmlns:xlink="http://www.w3.org/1999/xlink"><svg viewBox="0 0 32 32" width="32" height="32" id="about" x="178" y="32"><path fill="none" stroke-width="2" stroke-miterlimit="10" stroke="#bfb07d" d="M29 25H13l-5 4v-4H3V7h26z"/><path fill="#bfb07d" d="M15 14h2v8h-2zM15 10h2v2h-2z"/></svg><svg width="50" height="50" viewBox="0 0 512 512" id="camera" x="128" y="50"><path d="M430.4 147h-67.5l-40.4-40.8s-.2-.2-.3-.2l-.2-.2c-6-6-14.1-9.8-23.3-9.8h-84c-9.8 0-18.5 4.2-24.6 10.9v.1l-39.5 40h-69C63 147 48 161.6 48 180.2v202.1c0 18.6 15 33.7 33.6 33.7h348.8c18.5 0 33.6-15.1 33.6-33.7V180.2c0-18.6-15.1-33.2-33.6-33.2zM256 365.5c-50.9 0-92.4-41.6-92.4-92.6 0-51.1 41.5-92.6 92.4-92.6 51 0 92.4 41.5 92.4 92.6 0 51-41.4 92.6-92.4 92.6zm168.1-165c-7.7 0-14-6.3-14-14.1s6.3-14.1 14-14.1 14 6.3 14 14.1-6.3 14.1-14 14.1zM256 202.9c-38.6 0-69.8 31.3-69.8 70 0 38.6 31.2 70 69.8 70 38.5 0 69.8-31.3 69.8-70s-31.3-70-69.8-70z" fill="#bfb07d"/></svg><svg viewBox="0 0 50 50" width="50" height="50" id="codepen" y="114"><path d="M25 4L4 17.345v15.309L25 46l21-13.345v-15.31L25 4zm0 25.182l-5.932-4.113L25 21.025l5.932 4.044L25 29.182zm2-11.576V9.95l13.43 8.534-6.019 4.173L27 17.606zm-4 0l-7.411 5.052-6.019-4.173L23 9.95v7.656zm-10.908 7.436L8 27.831v-5.627l4.092 2.838zm3.478 2.411L23 32.604v7.446L9.591 31.529l5.979-4.076zM27 32.604l7.43-5.151 5.979 4.076L27 40.05v-7.446zm10.908-7.562L42 22.205v5.627l-4.092-2.79z" stroke-width="2" stroke-miterlimit="10" fill="none" stroke="#bfb07d"/></svg><svg width="50" height="50" viewBox="0 0 50 50" id="facebook" x="50" y="64"><path stroke-width="2" stroke-linecap="round" stroke-miterlimit="10" d="M40 1H10c-4.972 0-9 4.028-9 9v30c0 4.972 4.028 9 9 9h30c4.972 0 9-4.028 9-9V10c0-4.972-4.028-9-9-9zM26 48V28h-3v-6h3v-3c0-4.677 1.581-8 7-8 2.903 0 6 1 6 1v5h-3c-2.145 0-3 .504-3 2v3h6l-1 6h-5v20" fill="none" stroke="#bfb07d"/></svg><svg viewBox="0 0 32 32" width="32" height="32" id="idea" x="178"><path fill="none" stroke-width="2" stroke-miterlimit="10" stroke="#bfb07d" d="M13 23h6v4h-6zM24 12c0-4.7-4.1-8.5-8.9-7.9-3.6.4-6.5 3.3-7 6.9-.4 2.9.8 5.5 2.8 7.2 1.4 1.2 2.2 2.9 2.2 4.6v.2h6v-.2c0-1.8.9-3.5 2.3-4.8 1.5-1.5 2.6-3.6 2.6-6zM27 13h3M2 13h3M23.8 20.8l2.1 2.1M6.1 3.1l2.1 2.1M8.2 20.8l-2.1 2.1M25.9 3.1l-2.1 2.1"/><path d="M18 27c0 1.1-.9 2-2 2s-2-.9-2-2h4z" fill="#bfb07d"/></svg><svg width="50" height="50" viewBox="0 0 50 50" id="linkedin" y="64"><path stroke-width="2" stroke-linecap="round" stroke-linejoin="round" stroke-miterlimit="10" d="M40 1H10c-5 0-9 4-9 9v30c0 5 4 9 9 9h30c5 0 9-4 9-9V10c0-5-4-9-9-9zM8 19h8v23H8z" fill="none" stroke="#bfb07d"/><path stroke-width="1.976" stroke-linecap="round" stroke-linejoin="round" stroke-miterlimit="10" d="M12 16.5c-2.4 0-4-1.7-4-3.8C8 10.6 9.6 9 12 9s3.9 1.6 4 3.7c0 2.1-1.5 3.8-4 3.8z" fill="none" stroke="#bfb07d"/><path stroke-width="2" stroke-linecap="round" stroke-linejoin="round" stroke-miterlimit="10" d="M42 42h-8V29s-.1-4-3.5-4c-3 0-3.5 2.9-3.5 4v13h-8V19h8v3.1s1.6-3.1 6.3-3.1c4.8 0 8.7 3.3 8.7 10v13z" fill="none" stroke="#bfb07d"/></svg><svg id="mail" width="64" height="48" viewBox="0 0 64 48" x="64"><defs><style>.gcls-1{fill:#2f5572}</style></defs><title>mail</title><path class="gcls-1" d="M0 0v8l32 16L64 8V0H0zm0 16v32h64V16L32 32z" fill="#bfb07d"/></svg><svg viewBox="0 0 50 50" width="50" height="50" id="skull" x="50" y="114"><path fill="none" stroke-width="2" stroke-linecap="round" stroke-miterlimit="10" d="M43.7 31.2S47 26.9 47 19.4C47 7.2 37.2 1 25 1" stroke="#bfb07d"/><path fill="none" stroke-width="2" stroke-linecap="round" stroke-miterlimit="10" d="M25 49c7.6 0 11-1.6 11-6.2 0-3.8 3-1.5 6.6-5.6C46.1 33 42 27.7 42 25" stroke="#bfb07d"/><path fill-rule="evenodd" clip-rule="evenodd" fill="none" stroke-width="2" stroke-linecap="round" stroke-linejoin="round" stroke-miterlimit="10" d="M25 34s-3 3.8-3 5.6c0 .9.6 1.4 1.2 1.4 1 0 1.8-1.8 1.8-1.8s.8 1.8 1.8 1.8c.6 0 1.2-.5 1.2-1.4 0-1.178-1.286-3.214-2.174-4.479C25.358 34.453 25 34 25 34z" stroke="#bfb07d"/><path fill-rule="evenodd" clip-rule="evenodd" fill="none" stroke-width="2" stroke-linecap="round" stroke-miterlimit="10" d="M30.2 23.3c3.2-1 6.2.4 7.2 3.5 1.5 4.7-.1 6.8-1.7 7.4-3.8 1.3-7.2-.4-8.4-4-.8-2.5.1-6 2.9-6.9z" stroke="#bfb07d"/><path fill="none" stroke-width="2" stroke-linecap="round" stroke-miterlimit="10" d="M6.3 31.2S3 26.9 3 19.4C3 7.2 12.8 1 25 1" stroke="#bfb07d"/><path fill="none" stroke-width="2" stroke-linecap="round" stroke-miterlimit="10" d="M25 49c-7.6 0-11-1.6-11-6.2 0-3.8-3-1.5-6.6-5.6C3.9 33 8 27.7 8 25" stroke="#bfb07d"/><path fill-rule="evenodd" clip-rule="evenodd" fill="none" stroke-width="2" stroke-linecap="round" stroke-miterlimit="10" d="M19.8 23.3c-3.2-1-6.2.4-7.2 3.5-1.5 4.7.1 6.8 1.7 7.4 3.8 1.3 7.2-.4 8.4-4 .8-2.5-.1-6-2.9-6.9z" stroke="#bfb07d"/></svg><svg width="50" height="50" viewBox="0 0 50 50" id="speechbubble" x="100" y="114"><path style="text-indent:0;text-align:start;line-height:normal;text-transform:none" d="M25 4.063C12.415 4.063 2.062 12.925 2.062 24c0 6.426 3.562 12.092 8.938 15.719-.008.213.001.547-.281 1.593-.349 1.293-1.036 3.124-2.469 5.157l-1.031 1.437L9 47.938c6.176.026 9.755-4.034 10.313-4.688 1.824.405 3.72.688 5.687.688 12.584 0 22.938-8.863 22.938-19.938S37.584 4.062 25 4.062zm0 1.875c11.716 0 21.063 8.15 21.063 18.062 0 9.911-9.347 18.063-21.063 18.063-2.002 0-3.948-.242-5.781-.688l-.563-.125-.375.469s-2.89 3.257-7.5 4.031c.83-1.492 1.464-2.878 1.75-3.938.4-1.479.406-2.5.406-2.5v-.5l-.437-.28C7.273 35.217 3.937 29.942 3.937 24c0-9.911 9.346-18.063 21.063-18.063z" color="#000" overflow="visible" font-family="Bitstream Vera Sans" fill="#bfb07d"/></svg><svg width="64" height="64" viewBox="0 0 64 64" id="star"><defs><style>.jcls-1{fill:#d4953f}</style></defs><title>star</title><path class="jcls-1" d="M32 0l-8 24H0l20 16-8 24 20-16 20 16-8-24 20-16H40z" fill="#bfb07d"/></svg><svg width="50" height="50" viewBox="0 0 50 50" id="sun" x="128"><path fill="none" stroke-width="2" stroke-linecap="round" stroke-miterlimit="10" d="M25 16c4.963 0 9 4.038 9 9 0 4.963-4.037 9-9 9-4.962 0-9-4.037-9-9 0-4.962 4.038-9 9-9M25 45v-6M25 11V5M5 25h6M39 25h6M10.858 39.143l4.243-4.243M34.899 15.102l4.244-4.244M10.858 10.858l4.243 4.244M34.899 34.9l4.244 4.243" stroke="#bfb07d"/></svg></svg>