<svg width="100" height="100" viewBox="0 0 100 100" xmlns="http://www.w3.org/2000/svg" xmlns:xlink="http://www.w3.org/1999/xlink"><svg viewBox="0 0 50 50" width="50" height="50" xmlns="http://www.w3.org/2000/svg"><path d="M25 4L4 17.345v15.309L25 46l21-13.345v-15.31L25 4zm0 25.182l-5.932-4.113L25 21.025l5.932 4.044L25 29.182zm2-11.576V9.95l13.43 8.534-6.019 4.173L27 17.606zm-4 0l-7.411 5.052-6.019-4.173L23 9.95v7.656zm-10.908 7.436L8 27.831v-5.627l4.092 2.838zm3.478 2.411L23 32.604v7.446L9.591 31.529l5.979-4.076zM27 32.604l7.43-5.151 5.979 4.076L27 40.05v-7.446zm10.908-7.562L42 22.205v5.627l-4.092-2.79z" fill="#bfb07d"/></svg><svg width="50" height="50" viewBox="0 0 50 50" x="50" xmlns="http://www.w3.org/2000/svg"><path d="M25 1C11.8 1 1 11.8 1 25c0 10.2 6.4 18.9 15.3 22.4.9-.2 1.7-1 1.7-2V41h-2.6c-1.9 0-3.5-.9-4.3-2.3-.2-.4-.4-.9-.6-1.4-.4-1.1-.9-2.3-1.9-3-.4-.3-.6-.9-.5-1.4.2-.5.7-.9 1.6-.8 1 .1 2.5 1.2 3.4 2.4.8 1 1.4 1.6 2.6 1.6h.3c.9 0 3.1 0 3.5-.4.3-.4.5-.7.8-1-6-1.2-9.4-4.7-9.4-10 0-1.8.5-3.6 1.6-5.2-.4-1.5-1.3-5.4.6-7.1l.3-.3h.4c2.6 0 4.5 1.1 5.7 2 3.5-1.3 7.5-1.3 11 0 1.1-.9 3-2 5.7-2h.4l.3.3c1.9 1.8 1 5.6.6 7.1 1 1.6 1.6 3.4 1.6 5.2 0 5.3-3.4 8.8-9.3 10 1.5 1.6 2.3 4 2.3 5.9v4.9c0 1 .7 1.8 1.7 2C42.6 43.9 49 35.2 49 25 49 11.8 38.2 1 25 1z" fill="#bfb07d"/></svg><svg width="50" height="50" viewBox="0 0 50 50" y="50" xmlns="http://www.w3.org/2000/svg"><path stroke-width="2" stroke-linecap="round" stroke-linejoin="round" stroke-miterlimit="10" d="M40 1H10c-5 0-9 4-9 9v30c0 5 4 9 9 9h30c5 0 9-4 9-9V10c0-5-4-9-9-9zM8 19h8v23H8z" fill="none" stroke="#bfb07d"/><path stroke-width="1.976" stroke-linecap="round" stroke-linejoin="round" stroke-miterlimit="10" d="M12 16.5c-2.4 0-4-1.7-4-3.8C8 10.6 9.6 9 12 9s3.9 1.6 4 3.7c0 2.1-1.5 3.8-4 3.8z" fill="none" stroke="#bfb07d"/><path stroke-width="2" stroke-linecap="round" stroke-linejoin="round" stroke-miterlimit="10" d="M42 42h-8V29s-.1-4-3.5-4c-3 0-3.5 2.9-3.5 4v13h-8V19h8v3.1s1.6-3.1 6.3-3.1c4.8 0 8.7 3.3 8.7 10v13z" fill="none" stroke="#bfb07d"/></svg><svg viewBox="0 0 90 90" height="50" width="50" x="50" y="50" xmlns="http://www.w3.org/2000/svg"><path fill="#bfb07d" d="M55.363 90L35.236 54.717 66.475 0H87.5L56.262 54.717 76.391 90H55.363zM22.322 62.787l15.617-25.711-11.712-20.63H6.404l11.713 20.63L2.5 62.787h19.822z"/></svg></svg>