<?xml version="1.0" encoding="utf-8"?><svg width="150" height="132" viewBox="0 0 150 132" xmlns="http://www.w3.org/2000/svg" xmlns:xlink="http://www.w3.org/1999/xlink"><svg viewBox="0 0 32 32" width="32" height="32" id="about" y="100"><path fill="none" stroke-width="2" stroke-miterlimit="10" stroke="#bfb07d" d="M29 25H13l-5 4v-4H3V7h26z"/><path fill="#bfb07d" d="M15 14h2v8h-2zM15 10h2v2h-2z"/></svg><svg width="50" height="50" viewBox="0 0 512 512" id="camera"><path d="M430.4 147h-67.5l-40.4-40.8s-.2-.2-.3-.2l-.2-.2c-6-6-14.1-9.8-23.3-9.8h-84c-9.8 0-18.5 4.2-24.6 10.9v.1l-39.5 40h-69C63 147 48 161.6 48 180.2v202.1c0 18.6 15 33.7 33.6 33.7h348.8c18.5 0 33.6-15.1 33.6-33.7V180.2c0-18.6-15.1-33.2-33.6-33.2zM256 365.5c-50.9 0-92.4-41.6-92.4-92.6 0-51.1 41.5-92.6 92.4-92.6 51 0 92.4 41.5 92.4 92.6 0 51-41.4 92.6-92.4 92.6zm168.1-165c-7.7 0-14-6.3-14-14.1s6.3-14.1 14-14.1 14 6.3 14 14.1-6.3 14.1-14 14.1zM256 202.9c-38.6 0-69.8 31.3-69.8 70 0 38.6 31.2 70 69.8 70 38.5 0 69.8-31.3 69.8-70s-31.3-70-69.8-70z" fill="#bfb07d"/></svg><svg viewBox="0 0 50 50" width="50" height="50" id="codepen" x="50"><path d="M25 4L4 17.345v15.309L25 46l21-13.345v-15.31L25 4zm0 25.182l-5.932-4.113L25 21.025l5.932 4.044L25 29.182zm2-11.576V9.95l13.43 8.534-6.019 4.173L27 17.606zm-4 0l-7.411 5.052-6.019-4.173L23 9.95v7.656zm-10.908 7.436L8 27.831v-5.627l4.092 2.838zm3.478 2.411L23 32.604v7.446L9.591 31.529l5.979-4.076zM27 32.604l7.43-5.151 5.979 4.076L27 40.05v-7.446zm10.908-7.562L42 22.205v5.627l-4.092-2.79z" fill="#bfb07d"/></svg><svg width="50" height="50" viewBox="0 0 50 50" id="facebook" y="50"><path stroke-width="2" stroke-linecap="round" stroke-miterlimit="10" d="M40 1H10c-4.972 0-9 4.028-9 9v30c0 4.972 4.028 9 9 9h30c4.972 0 9-4.028 9-9V10c0-4.972-4.028-9-9-9zM26 48V28h-3v-6h3v-3c0-4.677 1.581-8 7-8 2.903 0 6 1 6 1v5h-3c-2.145 0-3 .504-3 2v3h6l-1 6h-5v20" fill="none" stroke="#bfb07d"/></svg><svg width="50" height="50" viewBox="0 0 50 50" id="github" x="50" y="50"><path d="M25 1C11.8 1 1 11.8 1 25c0 10.2 6.4 18.9 15.3 22.4.9-.2 1.7-1 1.7-2V41h-2.6c-1.9 0-3.5-.9-4.3-2.3-.2-.4-.4-.9-.6-1.4-.4-1.1-.9-2.3-1.9-3-.4-.3-.6-.9-.5-1.4.2-.5.7-.9 1.6-.8 1 .1 2.5 1.2 3.4 2.4.8 1 1.4 1.6 2.6 1.6h.3c.9 0 3.1 0 3.5-.4.3-.4.5-.7.8-1-6-1.2-9.4-4.7-9.4-10 0-1.8.5-3.6 1.6-5.2-.4-1.5-1.3-5.4.6-7.1l.3-.3h.4c2.6 0 4.5 1.1 5.7 2 3.5-1.3 7.5-1.3 11 0 1.1-.9 3-2 5.7-2h.4l.3.3c1.9 1.8 1 5.6.6 7.1 1 1.6 1.6 3.4 1.6 5.2 0 5.3-3.4 8.8-9.3 10 1.5 1.6 2.3 4 2.3 5.9v4.9c0 1 .7 1.8 1.7 2C42.6 43.9 49 35.2 49 25 49 11.8 38.2 1 25 1z" fill="#bfb07d"/></svg><svg viewBox="0 0 32 32" width="32" height="32" id="idea" x="32" y="100"><path fill="none" stroke-width="2" stroke-miterlimit="10" stroke="#bfb07d" d="M13 23h6v4h-6zM24 12c0-4.7-4.1-8.5-8.9-7.9-3.6.4-6.5 3.3-7 6.9-.4 2.9.8 5.5 2.8 7.2 1.4 1.2 2.2 2.9 2.2 4.6v.2h6v-.2c0-1.8.9-3.5 2.3-4.8 1.5-1.5 2.6-3.6 2.6-6zM27 13h3M2 13h3M23.8 20.8l2.1 2.1M6.1 3.1l2.1 2.1M8.2 20.8l-2.1 2.1M25.9 3.1l-2.1 2.1"/><path d="M18 27c0 1.1-.9 2-2 2s-2-.9-2-2h4z" fill="#bfb07d"/></svg><svg width="50" height="50" viewBox="0 0 50 50" id="linkedin" x="100"><path stroke-width="2" stroke-linecap="round" stroke-linejoin="round" stroke-miterlimit="10" d="M40 1H10c-5 0-9 4-9 9v30c0 5 4 9 9 9h30c5 0 9-4 9-9V10c0-5-4-9-9-9zM8 19h8v23H8z" fill="none" stroke="#bfb07d"/><path stroke-width="1.976" stroke-linecap="round" stroke-linejoin="round" stroke-miterlimit="10" d="M12 16.5c-2.4 0-4-1.7-4-3.8C8 10.6 9.6 9 12 9s3.9 1.6 4 3.7c0 2.1-1.5 3.8-4 3.8z" fill="none" stroke="#bfb07d"/><path stroke-width="2" stroke-linecap="round" stroke-linejoin="round" stroke-miterlimit="10" d="M42 42h-8V29s-.1-4-3.5-4c-3 0-3.5 2.9-3.5 4v13h-8V19h8v3.1s1.6-3.1 6.3-3.1c4.8 0 8.7 3.3 8.7 10v13z" fill="none" stroke="#bfb07d"/></svg><svg viewBox="0 0 50 50" width="50" height="50" id="skull" x="100" y="50"><path fill="none" stroke-width="2" stroke-linecap="round" stroke-miterlimit="10" d="M43.7 31.2S47 26.9 47 19.4C47 7.2 37.2 1 25 1" stroke="#bfb07d"/><path fill="none" stroke-width="2" stroke-linecap="round" stroke-miterlimit="10" d="M25 49c7.6 0 11-1.6 11-6.2 0-3.8 3-1.5 6.6-5.6C46.1 33 42 27.7 42 25" stroke="#bfb07d"/><path clip-rule="evenodd" fill="none" stroke-width="2" stroke-linecap="round" stroke-linejoin="round" stroke-miterlimit="10" d="M25 34s-3 3.8-3 5.6c0 .9.6 1.4 1.2 1.4 1 0 1.8-1.8 1.8-1.8s.8 1.8 1.8 1.8c.6 0 1.2-.5 1.2-1.4 0-1.178-1.286-3.214-2.174-4.479C25.358 34.453 25 34 25 34z" stroke="#bfb07d"/><path clip-rule="evenodd" fill="none" stroke-width="2" stroke-linecap="round" stroke-miterlimit="10" d="M30.2 23.3c3.2-1 6.2.4 7.2 3.5 1.5 4.7-.1 6.8-1.7 7.4-3.8 1.3-7.2-.4-8.4-4-.8-2.5.1-6 2.9-6.9z" stroke="#bfb07d"/><path fill="none" stroke-width="2" stroke-linecap="round" stroke-miterlimit="10" d="M6.3 31.2S3 26.9 3 19.4C3 7.2 12.8 1 25 1" stroke="#bfb07d"/><path fill="none" stroke-width="2" stroke-linecap="round" stroke-miterlimit="10" d="M25 49c-7.6 0-11-1.6-11-6.2 0-3.8-3-1.5-6.6-5.6C3.9 33 8 27.7 8 25" stroke="#bfb07d"/><path clip-rule="evenodd" fill="none" stroke-width="2" stroke-linecap="round" stroke-miterlimit="10" d="M19.8 23.3c-3.2-1-6.2.4-7.2 3.5-1.5 4.7.1 6.8 1.7 7.4 3.8 1.3 7.2-.4 8.4-4 .8-2.5-.1-6-2.9-6.9z" stroke="#bfb07d"/></svg></svg>