<?xml version="1.0" encoding="utf-8"?>
<svg viewBox="0 0 50 50" xmlns="http://www.w3.org/2000/svg">
  <path d="M25 4l-21 13.345v15.309l21 13.346 21-13.345v-15.31l-21-13.345zm0 25.182l-5.932-4.113 5.932-4.044 5.932 4.044-5.932 4.113zm2-11.576v-7.656l13.43 8.534-6.019 4.173-7.411-5.051zm-4 0l-7.411 5.052-6.019-4.173 13.43-8.535v7.656zm-10.908 7.436l-4.092 2.789v-5.627l4.092 2.838zm3.478 2.411l7.43 5.151v7.446l-13.409-8.521 5.979-4.076zm11.43 5.151l7.43-5.151 5.979 4.076-13.409 8.521v-7.446zm10.908-7.562l4.092-2.837v5.627l-4.092-2.79z" stroke-width="2" stroke-miterlimit="10" fill="none" style="stroke: rgb(191, 176, 125);"/>
</svg>