<?xml version="1.0" encoding="utf-8"?>
<svg width="50" height="50" viewBox="0 0 50 50" xmlns="http://www.w3.org/2000/svg">
  <path stroke-width="2" stroke-linecap="round" stroke-linejoin="round" stroke-miterlimit="10" d="M40 1h-30c-5 0-9 4-9 9v30c0 5 4 9 9 9h30c5 0 9-4 9-9v-30c0-5-4-9-9-9zM8 19h8v23h-8z" fill="none" style="stroke: rgb(191, 176, 125);"/>
  <path stroke-width="1.976" stroke-linecap="round" stroke-linejoin="round" stroke-miterlimit="10" d="M12 16.5c-2.4 0-4-1.7-4-3.8 0-2.1 1.6-3.7 4-3.7s3.9 1.6 4 3.7c0 2.1-1.5 3.8-4 3.8z" fill="none" style="stroke: rgb(191, 176, 125);"/>
  <path stroke-width="2" stroke-linecap="round" stroke-linejoin="round" stroke-miterlimit="10" d="M42 42h-8v-13s-.1-4-3.5-4c-3 0-3.5 2.9-3.5 4v13h-8v-23h8v3.1s1.6-3.1 6.3-3.1c4.8 0 8.7 3.3 8.7 10v13z" fill="none" style="stroke: rgb(191, 176, 125);"/>
</svg>