<?xml version="1.0" encoding="utf-8"?>
<svg id="Layer_1" x="0px" y="0px" viewBox="0 0 50 50" xmlns="http://www.w3.org/2000/svg">
  <path fill="none" stroke-width="2" stroke-linecap="round" stroke-miterlimit="10" d="M43.7,31.2&#10;&#9;c0,0,3.3-4.3,3.3-11.8C47,7.2,37.2,1,25,1" style="stroke: rgb(191, 176, 125);"/>
  <path fill="none" stroke-width="2" stroke-linecap="round" stroke-miterlimit="10" d="M25,49c7.6,0,11-1.6,11-6.2&#10;&#9;c0-3.8,3-1.5,6.6-5.6C46.1,33,42,27.7,42,25" style="stroke: rgb(191, 176, 125);"/>
  <path fill-rule="evenodd" clip-rule="evenodd" fill="none" stroke-width="2" stroke-linecap="round" stroke-linejoin="round" stroke-miterlimit="10" d="M 25 34 C 25 34 22 37.8 22 39.6 C 22 40.5 22.6 41 23.2 41 C 24.2 41 25 39.2 25 39.2 C 25 39.2 25.8 41 26.8 41 C 27.4 41 28 40.5 28 39.6 C 28 38.422 26.714 36.386 25.826 35.121 C 25.358 34.453 25 34 25 34 Z" style="stroke: rgb(191, 176, 125);"/>
  <path fill-rule="evenodd" clip-rule="evenodd" fill="none" stroke-width="2" stroke-linecap="round" stroke-miterlimit="10" d="&#10;&#9;M30.2,23.3c3.2-1,6.2,0.4,7.2,3.5c1.5,4.7-0.1,6.8-1.7,7.4c-3.8,1.3-7.2-0.4-8.4-4C26.5,27.7,27.4,24.2,30.2,23.3L30.2,23.3z" style="stroke: rgb(191, 176, 125);"/>
  <path fill="none" stroke-width="2" stroke-linecap="round" stroke-miterlimit="10" d="M6.3,31.2&#10;&#9;c0,0-3.3-4.3-3.3-11.8C3,7.2,12.8,1,25,1" style="stroke: rgb(191, 176, 125);"/>
  <path fill="none" stroke-width="2" stroke-linecap="round" stroke-miterlimit="10" d="M25,49c-7.6,0-11-1.6-11-6.2&#10;&#9;c0-3.8-3-1.5-6.6-5.6C3.9,33,8,27.7,8,25" style="stroke: rgb(191, 176, 125);"/>
  <path fill-rule="evenodd" clip-rule="evenodd" fill="none" stroke-width="2" stroke-linecap="round" stroke-miterlimit="10" d="&#10;&#9;M19.8,23.3c-3.2-1-6.2,0.4-7.2,3.5c-1.5,4.7,0.1,6.8,1.7,7.4c3.8,1.3,7.2-0.4,8.4-4C23.5,27.7,22.6,24.2,19.8,23.3L19.8,23.3z" style="stroke: rgb(191, 176, 125);"/>
</svg>