<?xml version="1.0" encoding="utf-8"?>
<svg id="Layer_1" x="0px" y="0px" width="50px" height="50px" viewBox="0 0 50 50" xmlns="http://www.w3.org/2000/svg">
  <g>
    <path fill="none" stroke-width="2" stroke-linecap="round" stroke-miterlimit="10" d="M25,16c4.963,0,9,4.038,9,9&#10;&#9;&#9;c0,4.963-4.037,9-9,9c-4.962,0-9-4.037-9-9C16,20.038,20.038,16,25,16" style="stroke: rgb(191, 176, 125);"/>
  </g>
  <line fill="none" stroke-width="2" stroke-linecap="round" stroke-miterlimit="10" x1="25" y1="45" x2="25" y2="39" style="stroke: rgb(191, 176, 125);"/>
  <line fill="none" stroke-width="2" stroke-linecap="round" stroke-miterlimit="10" x1="25" y1="11" x2="25" y2="5" style="stroke: rgb(191, 176, 125);"/>
  <line fill="none" stroke-width="2" stroke-linecap="round" stroke-miterlimit="10" x1="5" y1="25" x2="11" y2="25" style="stroke: rgb(191, 176, 125);"/>
  <line fill="none" stroke-width="2" stroke-linecap="round" stroke-miterlimit="10" x1="39" y1="25" x2="45" y2="25" style="stroke: rgb(191, 176, 125);"/>
  <line fill="none" stroke-width="2" stroke-linecap="round" stroke-miterlimit="10" x1="10.858" y1="39.143" x2="15.101" y2="34.9" style="stroke: rgb(191, 176, 125);"/>
  <line fill="none" stroke-width="2" stroke-linecap="round" stroke-miterlimit="10" x1="34.899" y1="15.102" x2="39.143" y2="10.858" style="stroke: rgb(191, 176, 125);"/>
  <line fill="none" stroke-width="2" stroke-linecap="round" stroke-miterlimit="10" x1="10.858" y1="10.858" x2="15.101" y2="15.102" style="stroke: rgb(191, 176, 125);"/>
  <line fill="none" stroke-width="2" stroke-linecap="round" stroke-miterlimit="10" x1="34.899" y1="34.9" x2="39.143" y2="39.143" style="stroke: rgb(191, 176, 125);"/>
</svg>